<svg width="67" height="34" viewBox="0 0 67 34" fill="none" xmlns="http://www.w3.org/2000/svg">
<path d="M2.15625 8C2.71875 8.02083 3.19792 8.22917 3.59375 8.625C3.98958 9 4.19792 9.46875 4.21875 10.0313V25.3438C4.09375 26.5938 3.40625 27.2708 2.15625 27.375C1.57292 27.375 1.0625 27.1875 0.625 26.8125C0.208333 26.4167 0 25.9271 0 25.3438V10.0313C0.0208333 9.44792 0.239583 8.96875 0.65625 8.59375C1.07292 8.19792 1.57292 8 2.15625 8ZM7.5 13.5C8.89583 12.5625 10.7812 11.6146 13.1562 10.6563L18.2812 8.46875C18.5104 8.36458 18.7604 8.30208 19.0312 8.28125C19.6146 8.23958 20.1146 8.41667 20.5312 8.8125C20.9479 9.1875 21.1562 9.67708 21.1562 10.2813C21.1562 10.9688 21.0104 11.4792 20.7188 11.8125C20.4479 12.125 20.0938 12.3854 19.6562 12.5938L15.2812 14.25C14.4271 14.5833 13.6146 14.9167 12.8438 15.25C12.0938 15.5625 11.4062 15.9271 10.7812 16.3438C10.1562 16.7188 9.82292 17.1458 9.78125 17.625C9.82292 18.0833 10.1562 18.5104 10.7812 18.9063C11.4062 19.3229 12.0938 19.6979 12.8438 20.0313C13.6146 20.3438 14.4271 20.6667 15.2812 21L20.1562 22.7813C20.5938 22.9896 20.9479 23.2604 21.2188 23.5938C21.5104 23.9063 21.6562 24.4063 21.6562 25.0938C21.6562 25.6979 21.4479 26.1979 21.0312 26.5938C20.6146 26.9688 20.1146 27.1354 19.5312 27.0938C19.2604 27.0729 19.0104 27.0104 18.7812 26.9063L13.1562 24.5938C10.7812 23.6354 8.88542 22.6875 7.46875 21.75C6.07292 20.7917 5.36458 19.4167 5.34375 17.625C5.36458 15.8333 6.08333 14.4583 7.5 13.5Z" fill="white"/>
<path d="M59.9804 8.46878C61.0429 8.48962 61.9908 8.82295 62.8242 9.46878C63.6575 10.1146 64.1585 10.8855 64.6585 11.7813C65.1793 12.6771 65.5648 13.625 65.8148 14.625C66.0648 15.625 66.1898 16.6459 66.1898 17.6875C66.1898 19.0625 65.971 20.4167 65.5335 21.75C65.1168 23.0625 64.5846 24.2292 63.6054 25.25C62.6471 26.2709 61.4388 26.823 59.9804 26.9063H49.0742C47.6158 26.8438 46.3971 26.3021 45.4179 25.2813C44.4388 24.2605 43.7408 23.0834 43.3242 21.75C42.9283 20.4167 42.7304 19.0625 42.7304 17.6875C42.7304 16.3125 42.9388 14.9688 43.3554 13.6563C43.7721 12.323 44.4596 11.1459 45.4179 10.125C46.3971 9.08337 47.6158 8.53128 49.0742 8.46878H59.9804ZM58.9179 22.7188C59.7096 22.6771 60.3658 22.3855 60.8867 21.8438C61.4283 21.2813 61.8138 20.6355 62.0429 19.9063C62.2721 19.1771 62.3867 18.4375 62.3867 17.6875C62.3867 16.9375 62.2617 16.2084 62.0117 15.5C61.7825 14.7709 61.4075 14.125 60.8867 13.5625C60.3658 13 59.7096 12.698 58.9179 12.6563H50.0429C49.2513 12.698 48.595 13 48.0742 13.5625C47.5533 14.125 47.1679 14.7709 46.9179 15.5C46.6888 16.2084 46.5742 16.9375 46.5742 17.6875C46.5742 18.4375 46.6888 19.1771 46.9179 19.9063C47.1471 20.6355 47.5221 21.2813 48.0429 21.8438C48.5846 22.3855 49.2513 22.6771 50.0429 22.7188H58.9179Z" fill="white"/>
<path d="M35.302 4.78977C35.3562 5.08792 35.1215 5.53647 34.9925 5.78322C34.9902 5.78777 34.9879 5.79232 34.9856 5.79687C34.955 5.85544 34.9313 5.91281 34.9038 5.98009C34.8381 6.14052 34.7492 6.35726 34.4861 6.78066C34.4399 6.91515 34.3921 7.04908 34.3425 7.1823C33.8063 8.62097 33.1496 10.0147 32.469 11.3995C32.463 11.418 32.4568 11.4367 32.4506 11.4557C32.3312 11.8221 32.183 12.2765 32.0252 12.5379C31.8247 12.8702 31.6718 13.0897 31.5436 13.269C31.0015 14.3684 30.4718 15.4724 30.003 16.5991C29.8561 16.9523 29.7153 17.3077 29.5818 17.6659C29.4589 17.9956 29.3406 18.3272 29.2264 18.6603C29.1864 18.8641 29.1558 19.0607 29.1275 19.243C29.0877 19.4991 29.0521 19.7271 29.0011 19.9074C28.8781 20.3417 28.6461 20.7999 28.4737 21.1401C28.4456 21.1957 28.419 21.2482 28.3947 21.2969C28.3094 21.5863 28.2255 21.8763 28.1421 22.1664C28.123 22.1808 28.1034 22.1951 28.0833 22.2096C27.8327 22.3903 27.7245 22.687 27.5539 23.1539C27.4797 23.3573 27.3935 23.5929 27.2787 23.8653C27.2047 24.0409 27.1068 24.1087 27.0269 24.1642C27.0034 24.1805 26.9814 24.1958 26.962 24.2124C26.8957 24.2693 26.9104 24.3608 26.9277 24.4688C26.9502 24.609 26.9772 24.7773 26.8377 24.9342C26.393 25.4342 26.4509 25.7491 26.4947 25.9873C26.5076 26.0572 26.5191 26.1205 26.5165 26.1799C26.508 26.3726 26.3616 26.5971 26.2171 26.7541C26.1025 26.8786 26.0524 27.1945 26.0449 27.4454C26.0421 27.5403 26.0004 27.6545 25.951 27.7889C25.9 27.928 25.8408 28.0889 25.8088 28.2727C25.7279 28.7373 25.6812 28.9827 25.6435 29.18C25.6327 29.2362 25.6225 29.2885 25.6127 29.3409C25.5816 29.5065 25.5318 29.7077 25.4813 29.9115C25.4209 30.1553 25.3596 30.4028 25.3286 30.5969C25.1158 31.0508 24.8939 31.5012 24.6721 31.9517C24.5579 32.1829 24.3336 32.362 24.042 32.447C23.7503 32.5319 23.4169 32.5164 23.1083 32.4014C22.7996 32.2864 22.5374 32.0799 22.3724 31.8248C22.2075 31.5698 22.1548 31.2874 22.2199 31.0379C22.3514 30.5353 22.4829 30.0325 22.6243 29.5336C22.7967 28.9258 22.9838 28.3235 23.2037 27.7334C23.3575 27.3207 23.5187 26.9106 23.6857 26.5028C23.7029 26.4608 23.7203 26.4188 23.7376 26.3769C23.7908 26.0018 23.8507 25.6299 23.9169 25.3769C23.9716 25.168 24.0668 25.0363 24.1484 24.9235C24.2045 24.8459 24.2541 24.7772 24.2796 24.6985C24.2933 24.6562 24.3098 24.5977 24.3297 24.5271C24.411 24.2387 24.549 23.749 24.7847 23.3431C24.8893 23.1631 25.0374 22.9638 25.1788 22.7735C25.381 22.5015 25.5696 22.2478 25.5977 22.0948C25.6471 21.826 25.7926 21.5509 25.9212 21.3078C26.0439 21.0759 26.1511 20.8731 26.1449 20.7327C26.1374 20.5649 26.2085 20.4507 26.314 20.2809C26.3872 20.1631 26.4769 20.0184 26.5687 19.8107C26.6747 19.5708 26.7825 19.4133 26.874 19.2794C27.0029 19.091 27.0999 18.9492 27.1153 18.6899C27.1325 18.4017 27.1829 18.1127 27.2872 17.9091C27.3347 17.8164 27.3733 17.7045 27.4134 17.588C27.4665 17.4338 27.5224 17.2716 27.6055 17.1355C27.6739 17.0233 27.7711 16.9457 27.8571 16.877C27.8839 16.8556 27.9095 16.835 27.933 16.8145C27.9681 16.7179 28.0029 16.6212 28.037 16.5243C28.0331 16.5051 28.0286 16.4847 28.0239 16.4635C28.0006 16.357 27.9721 16.2262 27.987 16.0829C28.0106 15.8561 28.1117 15.6871 28.2186 15.5089C28.3018 15.3702 28.3885 15.2258 28.4444 15.0442C28.4825 14.9203 28.5095 14.7731 28.5362 14.6272C28.5759 14.4106 28.6153 14.1966 28.6898 14.0656C28.7177 14.0165 28.772 13.9856 28.826 13.9551C28.8263 13.9549 28.8266 13.9548 28.8269 13.9547C28.8306 13.9527 28.8342 13.9505 28.8379 13.9485C28.9358 13.5982 29.0307 13.2467 29.124 12.8947C29.1253 12.8617 29.1268 12.8284 29.1284 12.7954C29.1362 12.6343 29.1438 12.4777 29.1145 12.3629C29.0827 12.2385 29.1355 11.975 29.1911 11.6974C29.2275 11.5155 29.2651 11.3276 29.281 11.1686C29.2903 11.0756 29.359 11.0098 29.4298 10.9421C29.4958 10.8789 29.5636 10.814 29.5864 10.7239C29.5978 10.6788 29.5992 10.6261 29.6006 10.5697C29.6019 10.5201 29.6032 10.4676 29.6115 10.4153C29.6193 10.3667 29.6779 10.2738 29.7529 10.1547C29.7993 10.081 29.8518 9.99732 29.9027 9.90788C29.9723 9.64728 30.0429 9.387 30.1151 9.12737C30.1007 9.06222 30.0736 9.00023 30.0303 8.94307C29.9994 8.90206 29.959 8.86193 29.9178 8.8208C29.8617 8.76484 29.8037 8.70696 29.7644 8.64231C29.7336 8.59179 29.7314 8.54485 29.7596 8.52442C29.7727 8.5149 29.7922 8.5111 29.8099 8.50763C29.8301 8.50365 29.8481 8.50008 29.8518 8.48891C29.8544 8.48085 29.8458 8.46824 29.8355 8.45283C29.819 8.4282 29.7978 8.39626 29.8088 8.36376C29.8495 8.24279 29.9094 8.1104 29.9682 7.98072C30.0335 7.83652 30.0974 7.69555 30.1316 7.57707C30.17 7.44433 30.2818 7.27647 30.3936 7.10824C30.4716 6.99088 30.5495 6.87328 30.6029 6.76741C30.6553 6.66365 30.6734 6.54202 30.6907 6.42418C30.7115 6.28272 30.7314 6.14662 30.8092 6.05366C30.825 6.03487 30.8819 6.02545 30.9532 6.01357C31.0036 6.00515 31.0614 5.99534 31.1169 5.98034C31.1677 5.84402 31.2204 5.7084 31.2748 5.57341C31.2702 5.56624 31.2656 5.55887 31.2608 5.55145C31.2607 5.55131 31.2606 5.55118 31.2605 5.55104C31.153 5.38348 31.006 5.15422 31.208 4.98433C31.2593 4.94114 31.3293 4.928 31.3923 4.91614C31.4542 4.90448 31.5096 4.89409 31.5339 4.85776C31.5616 4.81648 31.5505 4.75145 31.5385 4.68059C31.5216 4.5811 31.5027 4.46996 31.5862 4.39658C31.5919 4.39157 31.5981 4.38621 31.6044 4.38058C31.6642 4.32715 31.7528 4.24803 31.8936 4.18897C32.0298 3.90873 32.1707 3.63024 32.3146 3.3529C32.5545 2.8906 32.8027 2.4313 33.0508 1.97213C33.172 1.74889 33.3983 1.57584 33.6879 1.49396C33.9778 1.4122 34.3054 1.42765 34.6082 1.54049C34.911 1.65334 35.1687 1.856 35.3344 2.10752C35.4998 2.35893 35.5576 2.63787 35.5031 2.88594C35.4136 3.29022 35.3241 3.69464 35.2304 4.09742C35.2292 4.11991 35.2277 4.14241 35.2259 4.16467C35.2125 4.3303 35.246 4.50106 35.2795 4.67197C35.2872 4.71122 35.2949 4.75056 35.302 4.78977Z" fill="#E54FFF"/>
<path d="M30.2439 29.0728C30.1939 28.7752 30.4345 28.3328 30.5669 28.0894C30.5692 28.085 30.5716 28.0805 30.574 28.076C30.6054 28.0182 30.6298 27.9615 30.6583 27.895C30.7261 27.7365 30.8179 27.5223 31.0866 27.1055C31.1347 26.9724 31.1843 26.84 31.2357 26.7082C31.7913 25.2856 32.4668 23.9099 33.166 22.5434C33.1723 22.5251 33.1787 22.5065 33.1851 22.4878C33.3096 22.1251 33.4639 21.6755 33.6251 21.4181C33.8301 21.0907 33.9859 20.8749 34.1165 20.6987C34.6734 19.6139 35.2179 18.5243 35.7019 17.411C35.8535 17.0621 35.9992 16.7108 36.1375 16.3566C36.2648 16.0305 36.3876 15.7025 36.5064 15.373C36.5492 15.1709 36.5824 14.9757 36.6132 14.7948C36.6565 14.5405 36.6952 14.3142 36.7487 14.1357C36.8776 13.7056 37.1158 13.2536 37.2927 12.918C37.3216 12.8631 37.3489 12.8113 37.3738 12.7633C37.463 12.4767 37.5509 12.1895 37.6382 11.9022C37.6575 11.8883 37.6773 11.8744 37.6976 11.8603C37.9504 11.6847 38.0627 11.3913 38.2396 10.9296C38.3166 10.7285 38.406 10.4955 38.5244 10.2263C38.6007 10.0529 38.6995 9.98703 38.7802 9.93321C38.8039 9.91738 38.8261 9.90251 38.8456 9.88634C38.9127 9.83086 38.8993 9.73956 38.8835 9.63172C38.863 9.4918 38.8383 9.3239 38.9799 9.17014C39.431 8.68019 39.3776 8.36576 39.3371 8.12793C39.3252 8.05816 39.3145 7.99495 39.318 7.93586C39.3292 7.74425 39.4785 7.52334 39.6251 7.36956C39.7414 7.24763 39.7958 6.93409 39.8067 6.68446C39.8108 6.59007 39.8541 6.47715 39.9052 6.3442C39.9581 6.20663 40.0195 6.04752 40.0541 5.86513C40.1413 5.40422 40.1914 5.16075 40.2318 4.96507C40.2433 4.90929 40.2542 4.8574 40.2648 4.80542C40.2981 4.64118 40.3506 4.44171 40.4039 4.23979C40.4676 3.99815 40.5323 3.75289 40.566 3.56024C40.7849 3.11224 41.0128 2.66773 41.2407 2.22328C41.3579 1.99508 41.5846 1.82069 41.8771 1.74118C42.1698 1.66176 42.5027 1.68296 42.8095 1.80275C43.1163 1.92256 43.3754 2.13259 43.5368 2.38933C43.698 2.64603 43.7468 2.92798 43.6784 3.17525C43.54 3.67321 43.4017 4.17128 43.2534 4.66541C43.0728 5.26734 42.8775 5.86356 42.6496 6.44704C42.4902 6.8552 42.3235 7.26052 42.151 7.66355C42.1332 7.70504 42.1153 7.7465 42.0974 7.78794C42.0391 8.16034 41.9741 8.52941 41.9044 8.78011C41.8469 8.9871 41.7499 9.1165 41.6669 9.22734C41.6097 9.30362 41.5592 9.37111 41.5326 9.449C41.5183 9.49083 41.5011 9.54884 41.4802 9.61878C41.395 9.90436 41.2503 10.3894 41.0092 10.7892C40.9022 10.9666 40.7515 11.1624 40.6075 11.3493C40.4017 11.6166 40.2098 11.8658 40.1796 12.0176C40.1265 12.2843 39.9773 12.5556 39.8455 12.7953C39.7197 13.024 39.6098 13.224 39.614 13.3638C39.6192 13.5309 39.5466 13.6433 39.4388 13.8105C39.364 13.9265 39.2724 14.0689 39.1778 14.2741C39.0686 14.511 38.9588 14.6659 38.8654 14.7976C38.734 14.9829 38.6352 15.1223 38.6161 15.3802C38.595 15.6666 38.5407 15.9535 38.4336 16.1543C38.3848 16.2457 38.3448 16.3565 38.3031 16.4717C38.2479 16.6243 38.1898 16.7847 38.1049 16.9187C38.035 17.0292 37.9368 17.1048 37.85 17.1716C37.8229 17.1925 37.7969 17.2125 37.7732 17.2325C37.7368 17.328 37.7007 17.4237 37.6653 17.5196C37.6689 17.5387 37.6732 17.5591 37.6775 17.5803C37.6993 17.6867 37.726 17.8174 37.7091 17.9597C37.6824 18.185 37.5791 18.3515 37.4698 18.527C37.3847 18.6636 37.2961 18.8058 37.2377 18.9856C37.1979 19.1083 37.169 19.2543 37.1402 19.399C37.0976 19.614 37.0553 19.8262 36.9791 19.9554C36.9505 20.0038 36.8957 20.0336 36.8414 20.063C36.8411 20.0631 36.8408 20.0632 36.8405 20.0633C36.8368 20.0653 36.8331 20.0673 36.8295 20.0693C36.7268 20.4163 36.6271 20.7644 36.529 21.1132C36.5273 21.146 36.5253 21.1792 36.5232 21.2119C36.5132 21.3722 36.5035 21.5278 36.5311 21.6426C36.5612 21.767 36.5048 22.0283 36.4454 22.3037C36.4066 22.4841 36.3663 22.6705 36.3482 22.8284C36.3377 22.9208 36.2681 22.9851 36.1965 23.0513C36.1296 23.1131 36.061 23.1765 36.037 23.2657C36.025 23.3104 36.0229 23.3629 36.0207 23.419C36.0187 23.4683 36.0167 23.5205 36.0076 23.5724C35.9992 23.6207 35.9393 23.7121 35.8627 23.8294C35.8154 23.9019 35.7617 23.9843 35.7096 24.0724C35.6365 24.3306 35.5623 24.5884 35.4866 24.8456C35.5001 24.9107 35.5264 24.9728 35.5688 25.0305C35.5992 25.0718 35.639 25.1125 35.6796 25.1541C35.7349 25.2108 35.792 25.2694 35.8304 25.3344C35.8604 25.3852 35.862 25.432 35.8335 25.4518C35.8203 25.4611 35.8007 25.4645 35.7831 25.4677C35.7628 25.4713 35.7448 25.4745 35.7409 25.4856C35.7382 25.4936 35.7466 25.5062 35.7567 25.5218C35.7728 25.5466 35.7935 25.5787 35.7822 25.6109C35.7398 25.7306 35.6781 25.8613 35.6176 25.9893C35.5503 26.1317 35.4846 26.2709 35.4487 26.3883C35.4085 26.5197 35.2945 26.6849 35.1804 26.8503C35.1009 26.9658 35.0214 27.0815 34.9666 27.1859C34.9128 27.2883 34.8931 27.409 34.8741 27.526C34.8514 27.6665 34.8296 27.8016 34.7506 27.8928C34.7345 27.9112 34.6776 27.9196 34.6062 27.9302C34.5557 27.9377 34.4978 27.9464 34.4421 27.9604C34.3895 28.0952 34.3349 28.2293 34.2787 28.3627C34.2832 28.3699 34.2877 28.3773 34.2924 28.3848C34.2925 28.3849 34.2926 28.385 34.2927 28.3852C34.3978 28.5538 34.5415 28.7845 34.3374 28.9501C34.2855 28.9922 34.2154 29.0041 34.1522 29.0148C34.0902 29.0253 34.0348 29.0347 34.0099 29.0705C33.9817 29.1111 33.9919 29.176 34.003 29.2467C34.0184 29.346 34.0357 29.457 33.9513 29.5285C33.9456 29.5334 33.9393 29.5387 33.9329 29.5442C33.8724 29.5963 33.7828 29.6735 33.6413 29.7299C33.5014 30.0064 33.3567 30.2811 33.2091 30.5547C32.963 31.0106 32.7086 31.4635 32.4543 31.9162C32.3302 32.1363 32.1017 32.3046 31.8112 32.3811C31.5204 32.4574 31.1933 32.4364 30.8922 32.3188C30.5913 32.2012 30.3366 31.9951 30.1745 31.7419C30.0127 31.4888 29.9587 31.2102 30.0166 30.9642C30.1117 30.5634 30.2067 30.1624 30.3059 29.7632C30.3074 29.7408 30.3092 29.7184 30.3113 29.6963C30.327 29.5317 30.2959 29.3612 30.2648 29.1905C30.2577 29.1513 30.2505 29.112 30.2439 29.0728Z" fill="#E54FFF"/>
</svg>
